<mxfile host="app.diagrams.net" modified="2022-12-06T08:45:32.394Z" agent="5.0 (Windows NT 10.0; Win64; x64) AppleWebKit/537.36 (KHTML, like Gecko) Chrome/107.0.0.0 Safari/537.36" etag="LbMkz5DYoR-54HThXHTy" version="20.6.0" type="github">
  <diagram id="prtHgNgQTEPvFCAcTncT" name="Page-1">
    <mxGraphModel dx="1104" dy="482" grid="1" gridSize="10" guides="1" tooltips="1" connect="1" arrows="1" fold="1" page="1" pageScale="1" pageWidth="827" pageHeight="1169" math="0" shadow="0">
      <root>
        <mxCell id="0" />
        <mxCell id="1" parent="0" />
        <mxCell id="dNxyNK7c78bLwvsdeMH5-19" value="Pool" style="swimlane;html=1;childLayout=stackLayout;resizeParent=1;resizeParentMax=0;horizontal=0;startSize=20;horizontalStack=0;" parent="1" vertex="1">
          <mxGeometry x="120" y="120" width="450" height="240" as="geometry" />
        </mxCell>
        <mxCell id="dNxyNK7c78bLwvsdeMH5-27" value="" style="edgeStyle=orthogonalEdgeStyle;rounded=0;orthogonalLoop=1;jettySize=auto;html=1;dashed=1;endArrow=none;endFill=0;" parent="dNxyNK7c78bLwvsdeMH5-19" target="dNxyNK7c78bLwvsdeMH5-26" edge="1">
          <mxGeometry relative="1" as="geometry">
            <mxPoint x="180" y="90" as="sourcePoint" />
          </mxGeometry>
        </mxCell>
        <mxCell id="dNxyNK7c78bLwvsdeMH5-35" style="edgeStyle=orthogonalEdgeStyle;rounded=0;orthogonalLoop=1;jettySize=auto;html=1;endArrow=classic;endFill=1;" parent="dNxyNK7c78bLwvsdeMH5-19" target="dNxyNK7c78bLwvsdeMH5-34" edge="1">
          <mxGeometry relative="1" as="geometry">
            <mxPoint x="300" y="200" as="sourcePoint" />
          </mxGeometry>
        </mxCell>
        <mxCell id="dNxyNK7c78bLwvsdeMH5-20" value="Lane 1" style="swimlane;html=1;startSize=20;horizontal=0;" parent="dNxyNK7c78bLwvsdeMH5-19" vertex="1">
          <mxGeometry x="20" width="430" height="120" as="geometry" />
        </mxCell>
        <mxCell id="dNxyNK7c78bLwvsdeMH5-25" value="" style="edgeStyle=orthogonalEdgeStyle;rounded=0;orthogonalLoop=1;jettySize=auto;html=1;" parent="dNxyNK7c78bLwvsdeMH5-20" target="dNxyNK7c78bLwvsdeMH5-24" edge="1">
          <mxGeometry relative="1" as="geometry">
            <mxPoint x="80" y="60" as="sourcePoint" />
          </mxGeometry>
        </mxCell>
        <mxCell id="dNxyNK7c78bLwvsdeMH5-21" value="Lane 2" style="swimlane;html=1;startSize=20;horizontal=0;" parent="dNxyNK7c78bLwvsdeMH5-19" vertex="1">
          <mxGeometry x="20" y="120" width="430" height="120" as="geometry" />
        </mxCell>
        <mxCell id="dNxyNK7c78bLwvsdeMH5-29" value="" style="edgeStyle=orthogonalEdgeStyle;rounded=0;orthogonalLoop=1;jettySize=auto;html=1;endArrow=classic;endFill=1;" parent="dNxyNK7c78bLwvsdeMH5-21" target="dNxyNK7c78bLwvsdeMH5-28" edge="1">
          <mxGeometry relative="1" as="geometry">
            <mxPoint x="200" y="60" as="sourcePoint" />
          </mxGeometry>
        </mxCell>
        <mxCell id="R7jAdwDOwRKJz8v9XTPW-7" style="edgeStyle=orthogonalEdgeStyle;rounded=0;orthogonalLoop=1;jettySize=auto;html=1;endArrow=classic;endFill=1;" edge="1" parent="1" source="R7jAdwDOwRKJz8v9XTPW-15" target="R7jAdwDOwRKJz8v9XTPW-12">
          <mxGeometry relative="1" as="geometry" />
        </mxCell>
        <mxCell id="R7jAdwDOwRKJz8v9XTPW-8" style="edgeStyle=orthogonalEdgeStyle;rounded=0;orthogonalLoop=1;jettySize=auto;html=1;endArrow=classic;endFill=1;" edge="1" parent="1" source="R7jAdwDOwRKJz8v9XTPW-14" target="R7jAdwDOwRKJz8v9XTPW-19">
          <mxGeometry relative="1" as="geometry">
            <Array as="points">
              <mxPoint x="300" y="460" />
              <mxPoint x="520" y="460" />
            </Array>
          </mxGeometry>
        </mxCell>
        <mxCell id="R7jAdwDOwRKJz8v9XTPW-9" value="" style="ellipse;whiteSpace=wrap;html=1;" vertex="1" parent="1">
          <mxGeometry x="180" y="160" width="40" height="40" as="geometry" />
        </mxCell>
        <mxCell id="R7jAdwDOwRKJz8v9XTPW-10" value="" style="rounded=0;whiteSpace=wrap;html=1;fontFamily=Helvetica;fontSize=12;fontColor=#000000;align=center;" vertex="1" parent="1">
          <mxGeometry x="260" y="150" width="80" height="60" as="geometry" />
        </mxCell>
        <mxCell id="R7jAdwDOwRKJz8v9XTPW-11" value="" style="edgeStyle=orthogonalEdgeStyle;rounded=0;orthogonalLoop=1;jettySize=auto;html=1;endArrow=classic;endFill=1;" edge="1" parent="1" source="R7jAdwDOwRKJz8v9XTPW-12" target="R7jAdwDOwRKJz8v9XTPW-13">
          <mxGeometry relative="1" as="geometry" />
        </mxCell>
        <mxCell id="R7jAdwDOwRKJz8v9XTPW-12" value="" style="rounded=0;whiteSpace=wrap;html=1;fontFamily=Helvetica;fontSize=12;fontColor=#000000;align=center;" vertex="1" parent="1">
          <mxGeometry x="380" y="150" width="80" height="60" as="geometry" />
        </mxCell>
        <mxCell id="R7jAdwDOwRKJz8v9XTPW-13" value="" style="ellipse;whiteSpace=wrap;html=1;" vertex="1" parent="1">
          <mxGeometry x="500" y="160" width="40" height="40" as="geometry" />
        </mxCell>
        <mxCell id="R7jAdwDOwRKJz8v9XTPW-14" value="" style="rounded=0;whiteSpace=wrap;html=1;fontFamily=Helvetica;fontSize=12;fontColor=#000000;align=center;" vertex="1" parent="1">
          <mxGeometry x="260" y="270" width="80" height="60" as="geometry" />
        </mxCell>
        <mxCell id="R7jAdwDOwRKJz8v9XTPW-15" value="" style="rhombus;whiteSpace=wrap;html=1;fontFamily=Helvetica;fontSize=12;fontColor=#000000;align=center;" vertex="1" parent="1">
          <mxGeometry x="400" y="280" width="40" height="40" as="geometry" />
        </mxCell>
        <mxCell id="R7jAdwDOwRKJz8v9XTPW-16" value="Lane 3" style="swimlane;html=1;startSize=20;horizontal=0;" vertex="1" parent="1">
          <mxGeometry x="140" y="360" width="430" height="120" as="geometry" />
        </mxCell>
        <mxCell id="R7jAdwDOwRKJz8v9XTPW-17" value="" style="edgeStyle=orthogonalEdgeStyle;rounded=0;orthogonalLoop=1;jettySize=auto;html=1;endArrow=classic;endFill=1;" edge="1" parent="R7jAdwDOwRKJz8v9XTPW-16" source="R7jAdwDOwRKJz8v9XTPW-18" target="R7jAdwDOwRKJz8v9XTPW-19">
          <mxGeometry relative="1" as="geometry" />
        </mxCell>
        <mxCell id="R7jAdwDOwRKJz8v9XTPW-18" value="" style="rounded=0;whiteSpace=wrap;html=1;fontFamily=Helvetica;fontSize=12;fontColor=#000000;align=center;" vertex="1" parent="R7jAdwDOwRKJz8v9XTPW-16">
          <mxGeometry x="240" y="20" width="80" height="60" as="geometry" />
        </mxCell>
        <mxCell id="R7jAdwDOwRKJz8v9XTPW-19" value="" style="rhombus;whiteSpace=wrap;html=1;fontFamily=Helvetica;fontSize=12;fontColor=#000000;align=center;" vertex="1" parent="R7jAdwDOwRKJz8v9XTPW-16">
          <mxGeometry x="360" y="30" width="40" height="40" as="geometry" />
        </mxCell>
        <mxCell id="R7jAdwDOwRKJz8v9XTPW-20" value="" style="ellipse;whiteSpace=wrap;html=1;aspect=fixed;" vertex="1" parent="1">
          <mxGeometry x="370" y="370" width="80" height="80" as="geometry" />
        </mxCell>
        <mxCell id="R7jAdwDOwRKJz8v9XTPW-25" value="" style="edgeStyle=orthogonalEdgeStyle;rounded=0;orthogonalLoop=1;jettySize=auto;html=1;" edge="1" parent="1" source="R7jAdwDOwRKJz8v9XTPW-21" target="R7jAdwDOwRKJz8v9XTPW-24">
          <mxGeometry relative="1" as="geometry" />
        </mxCell>
        <mxCell id="R7jAdwDOwRKJz8v9XTPW-26" value="latepayfeemessage" style="edgeLabel;html=1;align=center;verticalAlign=middle;resizable=0;points=[];" vertex="1" connectable="0" parent="R7jAdwDOwRKJz8v9XTPW-25">
          <mxGeometry x="-0.2889" y="2" relative="1" as="geometry">
            <mxPoint y="1" as="offset" />
          </mxGeometry>
        </mxCell>
        <mxCell id="R7jAdwDOwRKJz8v9XTPW-21" value="" style="ellipse;whiteSpace=wrap;html=1;aspect=fixed;" vertex="1" parent="1">
          <mxGeometry x="170" y="520" width="35" height="35" as="geometry" />
        </mxCell>
        <mxCell id="R7jAdwDOwRKJz8v9XTPW-28" value="" style="edgeStyle=orthogonalEdgeStyle;rounded=0;orthogonalLoop=1;jettySize=auto;html=1;" edge="1" parent="1" source="R7jAdwDOwRKJz8v9XTPW-24" target="R7jAdwDOwRKJz8v9XTPW-27">
          <mxGeometry relative="1" as="geometry" />
        </mxCell>
        <mxCell id="R7jAdwDOwRKJz8v9XTPW-24" value="LatePayFeeService" style="whiteSpace=wrap;html=1;" vertex="1" parent="1">
          <mxGeometry x="380" y="507.5" width="120" height="60" as="geometry" />
        </mxCell>
        <mxCell id="R7jAdwDOwRKJz8v9XTPW-30" value="" style="edgeStyle=orthogonalEdgeStyle;rounded=0;orthogonalLoop=1;jettySize=auto;html=1;" edge="1" parent="1" source="R7jAdwDOwRKJz8v9XTPW-27" target="R7jAdwDOwRKJz8v9XTPW-29">
          <mxGeometry relative="1" as="geometry" />
        </mxCell>
        <mxCell id="R7jAdwDOwRKJz8v9XTPW-27" value="&lt;span style=&quot;font-size: 9.5pt; font-family: DengXian;&quot;&gt;cash customer &lt;br&gt;not pay&lt;/span&gt;" style="whiteSpace=wrap;html=1;" vertex="1" parent="1">
          <mxGeometry x="380" y="620" width="120" height="60" as="geometry" />
        </mxCell>
        <mxCell id="R7jAdwDOwRKJz8v9XTPW-32" value="" style="edgeStyle=orthogonalEdgeStyle;rounded=0;orthogonalLoop=1;jettySize=auto;html=1;" edge="1" parent="1" source="R7jAdwDOwRKJz8v9XTPW-29" target="R7jAdwDOwRKJz8v9XTPW-31">
          <mxGeometry relative="1" as="geometry" />
        </mxCell>
        <mxCell id="R7jAdwDOwRKJz8v9XTPW-33" value="Y" style="edgeLabel;html=1;align=center;verticalAlign=middle;resizable=0;points=[];" vertex="1" connectable="0" parent="R7jAdwDOwRKJz8v9XTPW-32">
          <mxGeometry x="-0.2462" relative="1" as="geometry">
            <mxPoint as="offset" />
          </mxGeometry>
        </mxCell>
        <mxCell id="R7jAdwDOwRKJz8v9XTPW-35" value="" style="edgeStyle=orthogonalEdgeStyle;rounded=0;orthogonalLoop=1;jettySize=auto;html=1;" edge="1" parent="1" source="R7jAdwDOwRKJz8v9XTPW-29" target="R7jAdwDOwRKJz8v9XTPW-34">
          <mxGeometry relative="1" as="geometry" />
        </mxCell>
        <mxCell id="R7jAdwDOwRKJz8v9XTPW-36" value="N" style="edgeLabel;html=1;align=center;verticalAlign=middle;resizable=0;points=[];" vertex="1" connectable="0" parent="R7jAdwDOwRKJz8v9XTPW-35">
          <mxGeometry x="-0.2667" y="2" relative="1" as="geometry">
            <mxPoint as="offset" />
          </mxGeometry>
        </mxCell>
        <mxCell id="R7jAdwDOwRKJz8v9XTPW-29" value="" style="rhombus;whiteSpace=wrap;html=1;" vertex="1" parent="1">
          <mxGeometry x="400" y="710" width="80" height="80" as="geometry" />
        </mxCell>
        <mxCell id="R7jAdwDOwRKJz8v9XTPW-31" value="return" style="whiteSpace=wrap;html=1;" vertex="1" parent="1">
          <mxGeometry x="150" y="720" width="120" height="60" as="geometry" />
        </mxCell>
        <mxCell id="R7jAdwDOwRKJz8v9XTPW-34" value="&amp;nbsp;Do release" style="whiteSpace=wrap;html=1;" vertex="1" parent="1">
          <mxGeometry x="380" y="880" width="120" height="60" as="geometry" />
        </mxCell>
      </root>
    </mxGraphModel>
  </diagram>
</mxfile>
